<?xml version="1.0" encoding="UTF-8"?><svg xmlns="http://www.w3.org/2000/svg" xmlns:xlink="http://www.w3.org/1999/xlink" fill-opacity="1" color-rendering="auto" color-interpolation="auto" text-rendering="auto" stroke="black" stroke-linecap="square" width="485" stroke-miterlimit="10" shape-rendering="auto" stroke-opacity="1" fill="black" stroke-dasharray="none" font-weight="normal" stroke-width="1" height="168" font-family="'Dialog'" font-style="normal" stroke-linejoin="miter" font-size="12px" stroke-dashoffset="0" image-rendering="auto">
  <!--Generated by ySVG 2.5-->
  <defs id="genericDefs"/>
  <g>
    <defs id="defs1">
      <clipPath clipPathUnits="userSpaceOnUse" id="clipPath1">
        <path d="M0 0 L485 0 L485 168 L0 168 L0 0 Z"/>
      </clipPath>
      <clipPath clipPathUnits="userSpaceOnUse" id="clipPath2">
        <path d="M37 141 L522 141 L522 309 L37 309 L37 141 Z"/>
      </clipPath>
    </defs>
    <g fill="white" text-rendering="geometricPrecision" shape-rendering="geometricPrecision" transform="translate(-37,-141)" stroke="white">
      <rect x="37" width="485" height="168" y="141" clip-path="url(#clipPath2)" stroke="none"/>
    </g>
    <g text-rendering="geometricPrecision" stroke-miterlimit="1.45" shape-rendering="geometricPrecision" transform="matrix(1,0,0,1,-37,-141)" stroke-linecap="butt">
      <rect x="52.252" y="167" clip-path="url(#clipPath2)" fill="none" width="79.4961" rx="4" ry="4" height="30"/>
      <text x="59.252" xml:space="preserve" y="186.5352" clip-path="url(#clipPath2)" font-family="sans-serif" stroke="none">source text</text>
      <rect x="189.748" y="167" clip-path="url(#clipPath2)" fill="none" width="36.3301" rx="4" ry="4" height="30"/>
      <text x="196.748" xml:space="preserve" y="186.5352" clip-path="url(#clipPath2)" font-family="sans-serif" stroke="none">AST</text>
      <rect x="307.2725" y="167" clip-path="url(#clipPath2)" fill="none" width="65.2402" rx="4" ry="4" height="30"/>
      <text x="314.2725" xml:space="preserve" y="186.5352" clip-path="url(#clipPath2)" font-family="sans-serif" stroke="none">core AST</text>
      <rect x="438.4795" y="168" clip-path="url(#clipPath2)" fill="none" width="68.041" rx="4" ry="4" height="30"/>
      <text x="445.4795" xml:space="preserve" y="187.5352" clip-path="url(#clipPath2)" font-family="sans-serif" stroke="none">assembly</text>
      <rect x="226.4648" y="264" clip-path="url(#clipPath2)" fill="none" width="71.6152" rx="4" ry="4" height="30"/>
      <text x="233.4648" xml:space="preserve" y="283.5352" clip-path="url(#clipPath2)" font-family="sans-serif" stroke="none">type table</text>
      <text x="233.0547" xml:space="preserve" y="175.5352" clip-path="url(#clipPath2)" font-family="sans-serif" stroke="none">typecheck</text>
      <text x="144.8018" xml:space="preserve" y="175.5352" clip-path="url(#clipPath2)" font-family="sans-serif" stroke="none">parse</text>
      <text x="262.9199" xml:space="preserve" y="235.5352" clip-path="url(#clipPath2)" font-family="sans-serif" stroke="none">read and write types</text>
      <text x="379.9902" xml:space="preserve" y="175.5352" clip-path="url(#clipPath2)" font-family="sans-serif" stroke="none">generate</text>
      <path fill="none" d="M131.7602 182 L181.7301 182" clip-path="url(#clipPath2)"/>
      <path d="M189.7301 182 L177.7301 177 L180.7301 182 L177.7301 187 Z" clip-path="url(#clipPath2)" stroke="none"/>
      <path fill="none" d="M226.0538 182 L299.2918 182" clip-path="url(#clipPath2)"/>
      <path d="M307.2918 182 L295.2918 177 L298.2918 182 L295.2918 187 Z" clip-path="url(#clipPath2)" stroke="none"/>
      <path fill="none" d="M372.494 182.2458 L430.465 182.683" clip-path="url(#clipPath2)"/>
      <path d="M438.4648 182.7433 L426.5028 177.653 L429.465 182.6755 L426.4274 187.6527 Z" clip-path="url(#clipPath2)" stroke="none"/>
      <path fill="none" d="M262.2725 255.9971 L262.2725 194.0303" clip-path="url(#clipPath2)"/>
      <path d="M262.2725 263.9971 L267.2725 251.9971 L262.2725 254.9971 L257.2725 251.9971 Z" clip-path="url(#clipPath2)" stroke="none"/>
      <path d="M262.2725 186.0303 L257.2725 198.0303 L262.2725 195.0303 L267.2725 198.0303 Z" clip-path="url(#clipPath2)" stroke="none"/>
    </g>
  </g>
</svg>
